HIERARCHY
ROOT Hips
{
	OFFSET -0.179506 -22.333345 2.821913
	CHANNELS 6 Xposition Yposition Zposition Zrotation Yrotation Xrotation 
	JOINT LeftUpLeg
	{
		OFFSET 6.951974 -9.140623 -0.681533
		CHANNELS 3 Zrotation Yrotation Xrotation
		JOINT LeftLeg
		{
			OFFSET 3.427654 -37.519855 -0.449580
			CHANNELS 3 Zrotation Yrotation Xrotation
			JOINT LeftFoot
			{
				OFFSET -1.359570 -39.796059 -4.369333
				CHANNELS 3 Zrotation Yrotation Xrotation
				JOINT LeftToe
				{
					OFFSET 2.635814 -5.579078 11.928840
					CHANNELS 3 Zrotation Yrotation Xrotation
					End Site
					{
						OFFSET 0.000000 0.000000 0.000000
					}
				}
			}
		}
	}
	JOINT RightUpLeg
	{
		OFFSET -6.767048 -9.052170 -0.431982
		CHANNELS 3 Zrotation Yrotation Xrotation
		JOINT RightLeg
		{
			OFFSET -3.829005 -38.256897 -0.885003
			CHANNELS 3 Zrotation Yrotation Xrotation
			JOINT RightFoot
			{
				OFFSET 1.577377 -39.841461 -4.231180
				CHANNELS 3 Zrotation Yrotation Xrotation
				JOINT RightToe
				{
					OFFSET -2.537174 -4.814398 12.334795
					CHANNELS 3 Zrotation Yrotation Xrotation
					End Site
					{
						OFFSET 0.000000 0.000000 0.000000
					}
				}
			}
		}
	}
	JOINT Spine
	{
		OFFSET -0.253288 10.896323 -2.669631
		CHANNELS 3 Zrotation Yrotation Xrotation
		JOINT Spine1
		{
			OFFSET 0.548704 13.518043 0.109247
			CHANNELS 3 Zrotation Yrotation Xrotation
			JOINT Spine2
			{
				OFFSET 0.145701 5.292222 2.542457
				CHANNELS 3 Zrotation Yrotation Xrotation
				JOINT Neck
				{
					OFFSET -0.277840 21.387037 -4.285703
					CHANNELS 3 Zrotation Yrotation Xrotation
					JOINT Head
					{
						OFFSET 0.515184 6.496960 5.134897
						CHANNELS 3 Zrotation Yrotation Xrotation
						End Site
						{
							OFFSET 0.000000 0.000000 0.000000
						}
					}
				}
				JOINT LeftShoulder
				{
					OFFSET 7.884473 12.174932 -3.408961
					CHANNELS 3 Zrotation Yrotation Xrotation
					JOINT LeftArm
					{
						OFFSET 9.097692 3.046888 -0.886815
						CHANNELS 3 Zrotation Yrotation Xrotation
						JOINT LeftForeArm
						{
							OFFSET 25.961220 -1.277207 -2.745643
							CHANNELS 3 Zrotation Yrotation Xrotation
							JOINT LeftHand
							{
								OFFSET 24.923361 0.898606 -0.117091
								CHANNELS 3 Zrotation Yrotation Xrotation
								End Site
								{
									OFFSET 0.000000 0.000000 0.000000
								}
							}
						}
					}
				}
				JOINT RightShoulder
				{
					OFFSET -8.175920 11.883285 -3.861528
					CHANNELS 3 Zrotation Yrotation Xrotation
					JOINT RightArm
					{
						OFFSET -9.601238 3.255117 -0.914307
						CHANNELS 3 Zrotation Yrotation Xrotation
						JOINT RightForeArm
						{
							OFFSET -25.374195 -1.332924 -2.140099
							CHANNELS 3 Zrotation Yrotation Xrotation
							JOINT RightHand
							{
								OFFSET -25.529810 0.777228 -0.555919
								CHANNELS 3 Zrotation Yrotation Xrotation
								End Site
								{
									OFFSET 0.000000 0.000000 0.000000
								}
							}
						}
					}
				}
			}
		}
	}
}
MOTION
Frames: 10
Frame Time: 0.033333
-0.919042 70.360825 22.084217 83.415190 32.207354 172.033019 9.104995 5.752174 10.099561 -6.344772 -12.430737 12.265220 6.996661 12.279498 -5.670639 nan nan nan -35.425301 -27.648944 -76.195417 1.288759 -25.599704 132.467523 26.757567 29.927578 -11.649184 nan nan nan 20.161768 -9.295053 32.964231 0.745706 15.645410 -4.789940 -1.643943 9.604757 1.818847 -19.018339 12.993172 -22.868745 -11.166351 -6.111199 -25.272117 11.053792 7.527906 -14.173954 -31.685057 -15.029457 -6.387500 154.557701 -32.285932 -130.369054 20.260007 -28.099235 -3.304996 -5.601265 4.441861 -0.949136 11.110960 5.651748 -1.245397 -176.904906 31.106672 -156.622061 2.414275 21.935645 5.216795 
-0.868580 70.223915 22.394272 83.426571 32.329671 171.772796 9.482000 6.278726 9.786721 -6.589930 -12.078869 13.177949 6.897791 11.751651 -5.662898 nan nan nan -34.818933 -27.180056 -76.350445 1.783503 -25.497146 131.804884 26.750140 30.006133 -11.563783 nan nan nan 19.716257 -9.086201 33.414389 0.675874 15.779482 -4.803197 -1.580707 9.603840 1.778160 -18.809200 12.737763 -23.608514 -11.285665 -6.071138 -24.805925 11.400945 7.633234 -14.553296 -31.807848 -15.526586 -5.839110 154.592743 -32.364594 -130.289380 18.878793 -27.821972 -2.180991 -6.243247 3.702334 -2.091682 11.906159 5.588463 -1.416635 -175.323921 31.194498 -155.781150 8.717323 20.738096 4.034948 
-0.798911 70.114372 22.574924 83.140921 32.153788 171.720310 9.247419 5.763815 9.881767 -6.818247 -12.361303 12.359928 7.741573 12.471019 -4.539177 nan nan nan -34.793525 -27.216787 -76.416415 2.395300 -25.560979 131.006641 26.934742 30.001833 -11.267435 nan nan nan 19.365584 -9.004926 33.180718 0.667289 15.497840 -4.554657 -1.695005 9.317890 1.122752 -18.378646 11.875832 -23.100892 -10.715044 -5.270083 -25.521810 11.740780 7.440049 -14.787933 -31.754458 -14.900535 -5.511091 154.854208 -32.357151 -130.851068 18.067878 -27.538401 -2.779500 -7.593875 3.947622 -2.915881 13.589000 5.429091 -1.705384 -173.650559 31.587925 -154.911935 16.587981 19.688571 2.873289 
-0.689636 70.014923 22.749016 83.051319 32.191146 171.901010 9.186672 5.899233 9.369110 -6.728401 -11.933348 12.557583 7.569451 12.439511 -4.025688 nan nan nan -34.549596 -27.037388 -76.483212 2.722645 -25.430948 130.201760 27.352149 30.403257 -10.803123 nan nan nan 19.196280 -9.158858 33.359045 0.179564 15.241975 -5.861199 -1.626589 9.470545 1.324487 -17.761256 11.020062 -22.256939 -9.987017 -4.386856 -26.345281 12.016973 7.013458 -15.063136 -31.481771 -14.160914 -5.484042 155.224445 -32.566615 -131.079812 17.619765 -27.452354 -3.643312 -8.719147 4.417032 -3.636638 14.914052 4.727390 -3.214396 -173.202739 32.593871 -155.234335 22.992917 21.861261 -0.323869 
-0.766604 69.821983 22.894917 84.179205 32.398606 173.528914 10.712099 6.436017 7.738001 -7.502589 -11.116867 13.502264 7.679350 11.867220 -3.845089 nan nan nan -34.251167 -26.724718 -76.842209 2.543358 -26.502778 129.676674 28.371439 31.090866 -10.280162 nan nan nan 20.206403 -9.098411 31.653713 0.009247 15.600398 -6.174033 -1.840586 9.609963 1.826993 -17.687069 11.116249 -21.326561 -9.294172 -4.256204 -27.483614 12.581809 7.033861 -14.083213 -31.697749 -15.429460 -5.543435 155.357008 -32.929778 -130.481202 16.316578 -27.822569 -3.277349 -9.540921 3.623477 -3.842155 15.828875 4.950150 -4.969978 -172.423559 34.332724 -157.466800 27.074796 27.886722 -14.747361 
-0.627849 69.629120 23.098429 84.259787 32.650765 173.645986 10.919525 6.806959 7.641338 -7.632363 -11.396772 13.421606 7.178818 12.453269 -3.054906 nan nan nan -34.081601 -26.146936 -76.783056 2.597841 -26.657728 129.127287 28.377840 31.346789 -10.060582 nan nan nan 20.015446 -8.869265 31.798615 -0.513955 15.892361 -6.913332 -1.677622 9.381070 2.096207 -17.376074 10.994683 -21.562579 -9.006928 -3.934320 -27.520377 13.113449 6.843603 -13.681286 -31.267209 -15.779460 -5.796565 155.672766 -33.230084 -129.306257 17.005817 -27.782379 -3.964782 -10.453877 3.397306 -4.651350 16.299241 4.406207 -6.766432 -172.065132 36.427775 -159.959974 25.627176 34.147718 -32.681026 
-0.472559 69.493721 23.293190 84.409729 32.708507 174.060822 10.999952 7.315245 7.028863 -7.310308 -11.268134 13.609454 6.508508 12.354313 -2.435181 nan nan nan -33.755792 -25.864919 -76.872845 2.610153 -26.717658 128.543823 28.338203 31.765072 -9.669022 nan nan nan 20.055548 -8.559843 31.328397 -0.882479 16.152329 -7.260346 -1.396700 9.153090 2.075230 -17.153767 10.184400 -20.817377 -8.691184 -3.588204 -28.312521 13.111051 6.054644 -13.507197 -30.677919 -15.723285 -5.641163 156.034275 -33.317830 -128.817062 17.107473 -27.612279 -4.202916 -11.107771 3.765446 -4.821581 15.935284 2.968091 -8.594299 -171.007539 38.155575 -161.891762 22.971732 38.680633 -47.357780 
-0.301223 69.397972 23.512796 84.475657 32.587899 174.365443 10.892052 7.292506 6.487619 -6.890659 -10.869558 13.611639 6.184139 12.200247 -1.650374 nan nan nan -33.525394 -25.702242 -76.839995 2.628311 -26.751495 127.952497 28.519574 32.000258 -9.150389 nan nan nan 20.114051 -8.224296 30.868002 -1.100354 16.321322 -7.406751 -1.288708 8.879140 1.879476 -17.120958 9.323929 -20.153035 -8.297606 -3.445421 -28.960595 12.905308 5.321850 -13.421819 -30.221962 -15.854964 -5.135494 156.227366 -33.336599 -128.962110 16.540449 -27.815926 -3.995446 -11.395917 4.209439 -4.662791 15.121656 1.431083 -9.790247 -168.734208 39.186860 -161.705340 22.446578 41.709192 -53.058143 
-0.109090 69.301247 23.750080 84.463381 32.345533 174.482329 10.661709 6.763990 6.249818 -6.451771 -10.414846 13.244085 6.120752 12.120177 -0.817415 nan nan nan -33.380917 -25.553062 -76.608207 2.615780 -26.746693 127.400083 28.731203 31.674573 -8.719417 nan nan nan 20.113503 -7.959387 30.580586 -1.338724 16.370403 -7.594238 -1.354283 8.603835 1.771438 -17.243051 8.877262 -20.053410 -7.602832 -3.275633 -29.213077 12.925846 5.046111 -13.751533 -30.167704 -16.360289 -4.399509 156.503758 -33.497992 -129.445162 15.234963 -27.784726 -3.370318 -11.866060 4.296276 -4.802701 14.859016 0.746417 -10.513096 -165.732969 39.813757 -159.379572 26.266900 42.518187 -50.521309 
0.055388 69.176414 23.982422 84.336616 32.042320 174.645155 10.361208 6.391315 5.950238 -5.960920 -9.856104 12.773969 6.088133 11.672991 0.019525 nan nan nan -33.194163 -25.507717 -76.580062 2.560666 -26.668342 126.956485 28.880878 31.232187 -8.419939 nan nan nan 19.977416 -7.713054 30.134107 -1.604455 16.334330 -7.588273 -1.473015 8.287869 1.478142 -17.243545 8.598664 -20.026053 -6.956778 -2.943162 -29.396624 13.023150 5.008824 -14.252212 -30.160548 -16.888296 -3.499824 156.761677 -33.698139 -129.994493 13.787069 -27.488954 -2.361569 -12.561247 4.264332 -5.108633 14.966906 0.687983 -11.234610 -162.327637 40.152314 -156.292657 30.871598 42.185977 -45.373141 
